#Comment line ignore any data following # character 
#Hierarchical Translation and Rotation (.htr) file 
[Header]	
#Header keywords are followed by a single value 
FileType HTR		#Single word string
DataType HTRS		#Translation followed by rotation and scale data
FileVersion 1		#integer
NumSegments 25		#integer
NumFrames 4		#integer
DataFrameRate 30		#integer, data frame rate in this file
EulerRotationOrder ZYX
CalibrationUnits mm
RotationUnits Degrees
GlobalAxisofGravity Y
BoneLengthAxis Y
ScaleFactor 1.00
[SegmentNames&Hierarchy]
#CHILD	PARENT
BN_Tick_Root GLOBAL
BN_Torso BN_Tick_Root
BN_L_Leg_Front01 BN_Torso
BN_L_Leg_Rear01 BN_Torso
BN_MetalTop BN_Torso
BN_Neck BN_Torso
BN_R_Leg_Front01 BN_Torso
BN_R_Leg_Rear01 BN_Torso
BN_Sack BN_Torso
BN_L_Leg_Front02 BN_L_Leg_Front01
BN_L_Leg_Front03 BN_L_Leg_Front02
BN_L_Leg_Rear02 BN_L_Leg_Rear01
BN_L_Leg_Rear03 BN_L_Leg_Rear02
BN_Head BN_Neck
BN_Needle BN_Head
BN_R_Leg_Front02 BN_R_Leg_Front01
BN_R_Leg_Front03 BN_R_Leg_Front02
BN_R_Leg_Rear02 BN_R_Leg_Rear01
BN_R_Leg_Rear03 BN_R_Leg_Rear02
BN_SackDef01 BN_Sack
BN_SackDef02 BN_Sack
BN_SackDef03 BN_Sack
BN_SackDef04 BN_Sack
BN_SackDef05 BN_Sack
BN_SackDef06 BN_Sack
[BasePosition]
#SegmentName Tx, Ty, Tz, Rx, Ry, Rz, BoneLength
BN_Tick_Root 0.000000 0.000000 0.000000 -90.000000 0.000000 0.000000 10.000000 
BN_Torso 0.000000 0.000000 0.000000 0.000000 0.000000 0.000000 10.000000 
BN_L_Leg_Front01 0.000000 0.000000 0.000000 0.000000 0.000000 0.000000 10.000000 
BN_L_Leg_Rear01 0.000000 0.000000 0.000000 0.000000 0.000000 0.000000 10.000000 
BN_MetalTop 0.000000 0.000000 0.000000 0.000000 0.000000 0.000000 10.000000 
BN_Neck 0.000000 0.000000 0.000000 0.000000 0.000000 0.000000 10.000000 
BN_R_Leg_Front01 0.000000 0.000000 0.000000 0.000000 0.000000 0.000000 10.000000 
BN_R_Leg_Rear01 0.000000 0.000000 0.000000 0.000000 0.000000 0.000000 10.000000 
BN_Sack 0.000000 0.000000 0.000000 0.000000 0.000000 0.000000 10.000000 
BN_L_Leg_Front02 0.000000 0.000000 0.000000 0.000000 0.000000 0.000000 10.000000 
BN_L_Leg_Front03 0.000000 0.000000 0.000000 0.000000 0.000000 0.000000 10.000000 
BN_L_Leg_Rear02 0.000000 0.000000 0.000000 0.000000 0.000000 0.000000 10.000000 
BN_L_Leg_Rear03 0.000000 0.000000 0.000000 0.000000 0.000000 0.000000 10.000000 
BN_Head 0.000000 0.000000 0.000000 0.000000 0.000000 0.000000 10.000000 
BN_Needle 0.000000 0.000000 0.000000 0.000000 0.000000 0.000000 10.000000 
BN_R_Leg_Front02 0.000000 0.000000 0.000000 0.000000 0.000000 0.000000 10.000000 
BN_R_Leg_Front03 0.000000 0.000000 0.000000 0.000000 0.000000 0.000000 10.000000 
BN_R_Leg_Rear02 0.000000 0.000000 0.000000 0.000000 0.000000 0.000000 10.000000 
BN_R_Leg_Rear03 0.000000 0.000000 0.000000 0.000000 0.000000 0.000000 10.000000 
BN_SackDef01 0.000000 0.000000 0.000000 0.000000 0.000000 0.000000 10.000000 
BN_SackDef02 0.000000 0.000000 0.000000 0.000000 0.000000 0.000000 10.000000 
BN_SackDef03 0.000000 0.000000 0.000000 0.000000 0.000000 0.000000 10.000000 
BN_SackDef04 0.000000 0.000000 0.000000 0.000000 0.000000 0.000000 10.000000 
BN_SackDef05 0.000000 0.000000 0.000000 0.000000 0.000000 0.000000 10.000000 
BN_SackDef06 0.000000 0.000000 0.000000 0.000000 0.000000 0.000000 10.000000 
#Beginning of Data. Separated by tabs
#Fr	Tx	Ty	Tz	Rx	Ry	Rz	SF
[BN_Tick_Root]
282 0.000000 0.000000 0.000000 0.000000 0.000000 -0.000020 0.000000
283 0.000000 0.000000 0.000000 0.000000 0.000000 -0.000020 0.000000
284 0.000000 0.000000 0.000000 0.000000 0.000000 -0.000020 0.000000
285 0.000000 0.000000 0.000000 0.000000 0.000000 -0.000020 0.000000
[BN_Torso]
282 98.203423 -247.487839 634.267761 20.077166 0.132666 -169.163742 687.887878
283 97.683090 -247.230896 633.579346 19.759781 0.104749 -169.033066 687.086548
284 98.027657 -245.762024 631.590027 18.863073 0.030901 -168.919769 684.773193
285 99.136787 -243.201279 628.437561 17.439058 -0.091883 -168.825287 681.108459
[BN_L_Leg_Front01]
282 -68.477791 10.734189 -26.804373 34.216309 65.531158 -123.775978 74.316254
283 -68.477791 10.734189 -26.804373 33.488907 65.890205 -124.991631 74.316254
284 -68.477791 10.734189 -26.804373 31.096752 66.746536 -128.082336 74.316254
285 -68.477791 10.734189 -26.804373 26.790781 67.932724 -133.235443 74.316254
[BN_L_Leg_Rear01]
282 -72.133743 -73.994843 -18.268616 84.216095 43.999729 -126.063324 104.939293
283 -72.133743 -73.994843 -18.268616 83.984535 44.305302 -126.326820 104.939293
284 -72.133743 -73.994843 -18.268616 83.178146 44.990906 -126.993118 104.939293
285 -72.133743 -73.994843 -18.268616 81.802528 45.987331 -128.060043 104.939293
[BN_MetalTop]
282 0.000008 13.737477 26.403606 76.322495 -34.822807 -93.704597 29.763546
283 0.000008 13.737477 26.403606 76.447800 -34.694225 -93.732330 29.763546
284 0.000008 13.737477 26.403606 76.824463 -34.322533 -93.822968 29.763546
285 0.000008 13.737477 26.403606 77.410057 -33.725262 -93.959167 29.763546
[BN_Neck]
282 0.000014 95.233284 10.002091 -89.999672 -65.297531 89.999657 95.757088
283 0.000014 95.233284 10.002091 -89.999672 -65.297531 89.999657 95.757088
284 0.000014 95.233284 10.002091 -89.999672 -65.297531 89.999657 95.757088
285 0.000014 95.233284 10.002091 -89.999672 -65.297531 89.999657 95.757088
[BN_R_Leg_Front01]
282 68.477768 10.734107 -26.804314 -35.337963 63.892124 -65.086937 74.316193
283 68.477768 10.734107 -26.804314 -34.924644 64.285049 -64.145363 74.316193
284 68.477768 10.734107 -26.804314 -33.447418 65.278458 -61.919266 74.316193
285 68.477768 10.734107 -26.804314 -30.657919 66.757339 -58.229790 74.316193
[BN_R_Leg_Rear01]
282 72.133751 -73.994873 -18.268644 -69.460922 38.000443 -77.307236 104.939331
283 72.133751 -73.994873 -18.268644 -69.450096 38.495564 -77.182747 104.939331
284 72.133751 -73.994873 -18.268644 -69.383850 39.740131 -76.879265 104.939331
285 72.133751 -73.994873 -18.268644 -69.253532 41.648705 -76.392288 104.939331
[BN_Sack]
282 -0.000000 -78.024918 33.657791 93.587807 -0.679256 -97.426376 84.974907
283 -0.000000 -78.024918 33.657791 93.556129 -0.830473 -97.419563 84.974907
284 -0.000000 -78.024918 33.657791 93.524391 -0.982135 -97.412247 84.974907
285 -0.000000 -78.024918 33.657791 93.436348 -1.393849 -97.398506 84.974907
[BN_L_Leg_Front02]
282 142.805023 -0.000015 -0.000104 0.143879 0.439463 -106.744408 142.805023
283 142.805023 -0.000015 -0.000104 0.142389 0.446508 -106.865532 142.805023
284 142.805023 -0.000015 -0.000104 0.140376 0.447151 -107.381531 142.805023
285 142.805023 -0.000015 -0.000104 0.135995 0.455064 -108.219765 142.805023
[BN_L_Leg_Front03]
282 124.143021 -0.000045 0.000007 0.355203 -0.403712 115.666550 124.143021
283 124.143021 -0.000045 0.000007 0.354772 -0.404095 115.787148 124.143021
284 124.143021 -0.000045 0.000007 0.350333 -0.401500 116.305695 124.143021
285 124.143021 -0.000045 0.000007 0.355843 -0.398871 117.136063 124.143021
[BN_L_Leg_Rear02]
282 139.939041 0.000075 -0.000022 0.122207 -0.201488 81.676514 139.939041
283 139.939041 0.000075 -0.000022 0.121691 -0.201800 81.969872 139.939041
284 139.939041 0.000075 -0.000022 0.120800 -0.202335 82.475098 139.939041
285 139.939041 0.000075 -0.000022 0.117822 -0.204979 83.232315 139.939041
[BN_L_Leg_Rear03]
282 142.839615 0.000179 -0.000060 0.000148 -0.002343 -97.227051 142.839615
283 142.839615 0.000179 -0.000060 0.000156 -0.002342 -97.620445 142.839615
284 142.839615 0.000179 -0.000060 0.000170 -0.002341 -98.288811 142.839615
285 142.839615 0.000179 -0.000060 0.000188 -0.002340 -99.181396 142.839615
[BN_Head]
282 57.062447 -0.000030 0.000000 12.185928 17.801199 65.439819 57.062447
283 57.062447 -0.000030 0.000000 12.029464 17.717457 64.685913 57.062447
284 57.062447 -0.000030 0.000000 11.702156 17.494648 62.910961 57.062447
285 57.062447 -0.000030 0.000000 11.217443 17.143507 60.209137 57.062447
[BN_Needle]
282 43.343552 326.411987 0.000009 0.000003 0.000030 87.896805 329.277161
283 42.772865 310.872223 -0.000011 0.000003 0.000030 87.896805 313.800995
284 42.202145 295.331451 -0.000032 0.000003 0.000030 87.896805 298.331512
285 41.631405 279.790222 -0.000053 0.000003 0.000030 87.896805 282.870544
[BN_R_Leg_Front02]
282 142.804947 -0.000060 0.000060 -0.132413 0.478397 110.256737 142.804947
283 142.804947 -0.000060 0.000060 -0.130610 0.485409 110.393127 142.804947
284 142.804947 -0.000060 0.000060 -0.130989 0.490131 110.963860 142.804947
285 142.804947 -0.000060 0.000060 -0.122902 0.493952 111.897293 142.804947
[BN_R_Leg_Front03]
282 124.143005 -0.000060 -0.000156 -0.353831 -0.390576 -119.114784 124.143005
283 124.143005 -0.000060 -0.000156 -0.353385 -0.390990 -119.244614 124.143005
284 124.143005 -0.000060 -0.000156 -0.355801 -0.390184 -119.788048 124.143005
285 124.143005 -0.000060 -0.000156 -0.354648 -0.386153 -120.666191 124.143005
[BN_R_Leg_Rear02]
282 139.939011 -0.000149 0.000015 -0.130603 -0.203623 -79.757446 139.939011
283 139.939011 -0.000149 0.000015 -0.137755 -0.217600 -80.317924 139.939011
284 139.939011 -0.000149 0.000015 -0.131793 -0.215784 -81.487198 139.939011
285 139.939011 -0.000149 0.000015 -0.121165 -0.211156 -83.194931 139.939011
[BN_R_Leg_Rear03]
282 142.839417 0.000075 0.000119 0.002345 -0.000096 94.665833 142.839417
283 142.839417 0.000075 0.000119 0.002345 -0.000111 95.415077 142.839417
284 142.839417 0.000075 0.000119 0.002343 -0.000143 96.975784 142.839417
285 142.839417 0.000075 0.000119 0.002340 -0.000189 99.221138 142.839417
[BN_SackDef01]
282 249.782272 -3.760844 42.949425 -128.408218 -44.374973 -11.740845 253.475800
283 249.782272 -3.760844 42.949425 -128.408218 -44.374973 -11.740845 253.475800
284 249.782272 -3.760844 42.949425 -128.408218 -44.374973 -11.740845 253.475800
285 249.782272 -3.760844 42.949425 -128.408218 -44.374973 -11.740845 253.475800
[BN_SackDef02]
282 138.789795 -62.131748 45.674385 32.077126 -27.375721 -88.781525 158.773758
283 138.789795 -62.131748 45.674385 32.077126 -27.375721 -88.781525 158.773758
284 138.789795 -62.131748 45.674385 32.077126 -27.375721 -88.781525 158.773758
285 138.789795 -62.131748 45.674385 32.077126 -27.375721 -88.781525 158.773758
[BN_SackDef03]
282 249.782272 -3.760785 -42.949661 18.144459 44.375008 -11.740894 253.475845
283 249.782272 -3.760785 -42.949661 18.144459 44.375008 -11.740894 253.475845
284 249.782272 -3.760785 -42.949661 18.144459 44.375008 -11.740894 253.475845
285 249.782272 -3.760785 -42.949661 18.144459 44.375008 -11.740894 253.475845
[BN_SackDef04]
282 138.789780 -62.131645 -45.674473 146.059982 27.375723 -88.781555 158.773743
283 138.789780 -62.131645 -45.674473 146.059982 27.375723 -88.781555 158.773743
284 138.789780 -62.131645 -45.674473 146.059982 27.375723 -88.781555 158.773743
285 138.789780 -62.131645 -45.674473 146.059982 27.375723 -88.781555 158.773743
[BN_SackDef05]
282 118.790161 46.167137 -63.831196 0.155741 51.314110 90.605110 142.537460
283 118.790161 46.167137 -63.831196 0.155741 51.314110 90.605110 142.537460
284 118.790161 46.167137 -63.831196 0.155741 51.314110 90.605110 142.537460
285 118.790161 46.167137 -63.831196 0.155741 51.314110 90.605110 142.537460
[BN_SackDef06]
282 118.790207 46.167194 63.831219 152.058487 -51.314072 90.605019 142.537537
283 118.790207 46.167194 63.831219 152.058487 -51.314072 90.605019 142.537537
284 118.790207 46.167194 63.831219 152.058487 -51.314072 90.605019 142.537537
285 118.790207 46.167194 63.831219 152.058487 -51.314072 90.605019 142.537537
